<?xml version="1.0" encoding="utf-8"?>
<!-- Generator: Adobe Illustrator 25.0.0, SVG Export Plug-In . SVG Version: 6.00 Build 0)  -->
<svg version="1.1" id="Layer_1" xmlns="http://www.w3.org/2000/svg" xmlns:xlink="http://www.w3.org/1999/xlink" x="0px" y="0px"
	 width="173px" height="483px" viewBox="0 0 173 483" style="enable-background:new 0 0 173 483;" xml:space="preserve">
<style type="text/css">
	.st0{fill:none;stroke:#000000;stroke-width:2;stroke-miterlimit:10;}
</style>
<path class="st0" d="M109.3,117c-7,19-28,18-28,18c-1.8-1.9-5.5-9-8-11c-5.3-4.3-22-12-44.6-21.5c-3.6-5-6.4-7.5-8.4-7.5
	c-3,0,14-15.6,20-12.6s8,8,9.5,10.2s24.5,1.9,38.5,6.4c12.4,5.8,21.4,8.7,25,14c6,9,8,30,8,30c-1.2,32.8,12,72.1,9.6,74.8
	c-2.4,2.8-1.2,1.4-1.2,4.3h2.1c27.2,29.9,9.5,57.2,7.4,59.3c-2.1,2.1-13.6,16-15.7,21.3c-2.1,5.4-13.1,24-16.2,27
	c-2.1,2-3,6-2.1,12.9c0.4,3.3-2.4,6.4,2.1,11.9c9.3,11.3,19.9,39.9,31.9,85.7c6.3,17.7,7.7,28.7,4.2,33c-5.3,6.4-25.1,3.2-29.3,2.1
	c-4.2-1.1-11.5,5.3-34.5,3.2c-23-2.2-13.6-16-9.4-17.1s25.1-12.8,25.1-12.8c6.8-4.8,12-15.5,12-15.5s-5.3-3.2-6.3-4.3
	c-1-1-25.8-58.5-25.8-58.5s6.4,29.7,8.5,31.9s6.8,19.2,1.6,23.5c-5.3,4.3-23-1-29.3,1.1s-16.2,1.6-16.2,1.6s-28.3-9.6-10.5-13.9
	s25.1-19.2,27.2-23.5c2.1-4.2-1.1-23.4-2.1-27.7S46.6,335,46.6,335s-2.4-3.2,6.6-38.4s20.1-39.9,20.1-39.9c0-1.8,0.7-8.3,0.5-10.1
	c-3.6-0.1-7.6,4.3-10.6-2.7c-13-17-16.6-55.8-16.6-55.8c-1.7-6-4.4-9.9-4.4-9.2c0,0.4-8,3.8-16,4.8c-9,1.2-18.2,0-18.2,0
	c-10.4-19.2,4.2-59.7,4.2-59.7s-9.9-12.2-7.9-18.1c1.3-4,6.3-7.6,15-11c2-3,9.5-9.6,13-11c0-4,1.4-8.3,5-11c10.2-7.6,21-6.1,25-4
	c11.2-8.1,20-16,30-24s56.6-39.4,64.6-42.5s12.5,9.6,9.4,12.8l-63.7,40.5c-7,4.2-14,7.3-32.6,18.6c5.1,4.3,8.3,7.6,8.3,12.6
	s-0.2,4.9-1,9 M57.1,137.2c0,0-3.8-7.3-11.8-9.3c-5.5-1.4-5.3,1.5-8-2.5c-1.4-2-2-6.5-3-8.5c-1-3-3.9-14.2-5-14
	c-0.9,0.2-0.7,14.5-2,16c-2.5,2.9-1.8,1.2-5,6.5s-0.1,23.9,2,26.9c5.9-4,10-5.4,14-8.4C46.3,136.9,54.1,137.5,57.1,137.2z"/>
<path class="st0" d="M69.1,285.8c0,5-6.1,34.6-9.2,45.5c-2,7.3,0.7,16.8,8.2,28.7l8.2,11.9"/>
<line class="st0" x1="47.3" y1="88.2" x2="71.3" y2="73.5"/>
<line class="st0" x1="41.3" y1="82.9" x2="62.3" y2="68.9"/>
</svg>
