<?xml version="1.0" encoding="utf-8"?>
<!-- Generator: Adobe Illustrator 25.0.0, SVG Export Plug-In . SVG Version: 6.00 Build 0)  -->
<svg version="1.1" id="Layer_1" xmlns="http://www.w3.org/2000/svg" xmlns:xlink="http://www.w3.org/1999/xlink" x="0px" y="0px"
	 width="173px" height="483px" viewBox="0 0 173 483" style="enable-background:new 0 0 173 483;" xml:space="preserve">
<style type="text/css">
	.st0{fill:none;stroke:#000000;stroke-width:2;stroke-miterlimit:10;}
</style>
<path class="st0" d="M94,95.9c-0.8-4.1-1-4-1-9s3.2-8.3,8.3-12.6C82.7,63,75.7,59.9,68.7,55.7L5,15.2C1.9,12,6.4-0.7,14.4,2.4
	S69,36.9,79,44.9s18.8,15.9,30,24c4-2.1,14.8-3.6,25,4c3.6,2.7,5,7,5,11c3.5,1.4,11,8,13,11c8.7,3.4,13.7,7,15,11
	c2,5.9-7.9,18.1-7.9,18.1s14.6,40.5,4.2,59.7c0,0-9.2,1.2-18.2,0c-8-1-16-4.4-16-4.8c0-0.7-2.7,3.2-4.4,9.2c0,0-3.6,38.8-16.6,55.8
	c-3,7-7,2.6-10.6,2.7c-0.2,1.8,0.5,8.3,0.5,10.1c0,0,11.1,4.7,20.1,39.9s6.6,38.4,6.6,38.4s-6.8,24-7.8,28.3s-4.2,23.5-2.1,27.7
	c2.1,4.3,9.4,19.2,27.2,23.5s-10.5,13.9-10.5,13.9s-9.9,0.5-16.2-1.6c-6.3-2.1-24,3.2-29.3-1.1c-5.2-4.3-0.5-21.3,1.6-23.5
	s8.5-31.9,8.5-31.9s-24.8,57.5-25.8,58.5c-1,1.1-6.3,4.3-6.3,4.3s5.2,10.7,12,15.5c0,0,20.9,11.7,25.1,12.8
	c4.2,1.1,13.6,14.9-9.4,17.1c-23,2.1-30.3-4.3-34.5-3.2c-4.2,1.1-24,4.3-29.3-2.1c-3.5-4.3-2.1-15.3,4.2-33
	c12-45.8,22.6-74.4,31.9-85.7c4.5-5.5,1.7-8.6,2.1-11.9c0.9-6.9,0-10.9-2.1-12.9c-3.1-3-14.1-21.6-16.2-27
	c-2.1-5.3-13.6-19.2-15.7-21.3c-2.1-2.1-19.8-29.4,7.4-59.3h2.1c0-2.9,1.2-1.5-1.2-4.3c-2.4-2.7,10.8-42,9.6-74.8c0,0,2-21,8-30
	c3.6-5.3,12.6-8.2,25-14c14-4.5,37-4.2,38.5-6.4c1.5-2.2,3.5-7.2,9.5-10.2S154,95,151,95c-2,0-4.8,2.5-8.4,7.5
	C120,112,103.3,119.7,98,124c-2.5,2-6.2,9.1-8,11c0,0-21,1-28-18 M133,143.9c4,3,8.1,4.4,14,8.4c2.1-3,5.2-21.6,2-26.9
	s-2.5-3.6-5-6.5c-1.3-1.5-1.1-15.8-2-16c-1.1-0.2-4,11-5,14c-1,2-1.6,6.5-3,8.5c-2.7,4-2.5,1.1-8,2.5c-8,2-11.8,9.3-11.8,9.3
	C117.2,137.5,125,136.9,133,143.9z"/>
<path class="st0" d="M95,371.9l8.2-11.9c7.5-11.9,10.2-21.4,8.2-28.7c-3.1-10.9-9.2-40.5-9.2-45.5"/>
<line class="st0" x1="100" y1="73.5" x2="124" y2="88.2"/>
<line class="st0" x1="109" y1="68.9" x2="130" y2="82.9"/>
</svg>
